<svg id="Layer_1" data-name="Layer 1" xmlns="http://www.w3.org/2000/svg" viewBox="0 0 216 73.97"><defs><style>.cls-1{fill:#1a83b8;}.cls-2{fill:#fff;}</style></defs><title>under_construction</title><rect class="cls-1" width="216" height="73.97"/><path class="cls-2" d="M15.82,30.14v9a6.05,6.05,0,0,1-1.66,4.56,6.63,6.63,0,0,1-4.8,1.62,6.57,6.57,0,0,1-4.71-1.56A5.94,5.94,0,0,1,3,39.28V30.16H7.07V39a3.6,3.6,0,0,0,.6,2.31A2.15,2.15,0,0,0,9.43,42a2.15,2.15,0,0,0,1.8-.71,3.82,3.82,0,0,0,.56-2.33V30.15Z" transform="translate(-0.29 0.03)"/><path class="cls-2" d="M26.09,45.12V38.78A3.64,3.64,0,0,0,25.74,37a1.14,1.14,0,0,0-1.07-.59,1.55,1.55,0,0,0-1.47.81A6.14,6.14,0,0,0,22.76,40v5.09h-4l0-11.62h3l.5,1.43h.24a3.18,3.18,0,0,1,1.42-1.23A5,5,0,0,1,26,33.3a4,4,0,0,1,3,1.11,4.36,4.36,0,0,1,1.08,3.15v7.56Z" transform="translate(-0.29 0.03)"/><path class="cls-2" d="M36.43,45.31a3.47,3.47,0,0,1-2.17-.71,4.48,4.48,0,0,1-1.44-2.08,9.24,9.24,0,0,1-.51-3.21,7.53,7.53,0,0,1,1.13-4.43,3.63,3.63,0,0,1,3.13-1.6,3.58,3.58,0,0,1,1.71.39A3.77,3.77,0,0,1,39.62,35h.08a19.26,19.26,0,0,1-.2-2.73V29.15h4l0,16h-3l-.86-1.47h-.15A3.4,3.4,0,0,1,36.43,45.31Zm1.64-3.17a1.5,1.5,0,0,0,1.36-.61,3.65,3.65,0,0,0,.42-1.87v-.32a4.06,4.06,0,0,0-.44-2.19A1.55,1.55,0,0,0,38,36.51a1.36,1.36,0,0,0-1.22.74,4.22,4.22,0,0,0-.43,2.12,3.93,3.93,0,0,0,.44,2.06A1.4,1.4,0,0,0,38.07,42.14Z" transform="translate(-0.29 0.03)"/><path class="cls-2" d="M51.94,45.29a6.24,6.24,0,0,1-4.51-1.54,5.81,5.81,0,0,1-1.61-4.39,6.33,6.33,0,0,1,1.48-4.52,5.56,5.56,0,0,1,4.24-1.58,5.63,5.63,0,0,1,4.06,1.36A5.2,5.2,0,0,1,57,38.57v1.78H49.87a2,2,0,0,0,.71,1.53,2.79,2.79,0,0,0,1.83.55,8.81,8.81,0,0,0,1.94-.2,9.59,9.59,0,0,0,1.92-.68v2.88a7.08,7.08,0,0,1-1.95.67A13.48,13.48,0,0,1,51.94,45.29ZM51.69,36a1.67,1.67,0,0,0-1.18.45,2.09,2.09,0,0,0-.56,1.4h3.45a2,2,0,0,0-.48-1.34A1.57,1.57,0,0,0,51.69,36Z" transform="translate(-0.29 0.03)"/><path class="cls-2" d="M66.31,33.24a5.8,5.8,0,0,1,1,.08l.23,0-.35,3.78A5.9,5.9,0,0,0,65.81,37a2.6,2.6,0,0,0-1.91.6,2.35,2.35,0,0,0-.59,1.73v5.71h-4l0-11.62h3l.63,1.86h.19a4,4,0,0,1,1.4-1.49A3.36,3.36,0,0,1,66.31,33.24Z" transform="translate(-0.29 0.03)"/><path class="cls-2" d="M81.51,33.16a2.58,2.58,0,0,0-2.25,1.19,5.72,5.72,0,0,0-.81,3.27q0,4.33,3.3,4.32a6.74,6.74,0,0,0,1.93-.28A19.29,19.29,0,0,0,85.55,41v3.42a10.38,10.38,0,0,1-4.24.84,6.72,6.72,0,0,1-5.21-2,8.12,8.12,0,0,1-1.82-5.69,9.07,9.07,0,0,1,.87-4.09,6.26,6.26,0,0,1,2.52-2.72,7.61,7.61,0,0,1,3.87-1,10.66,10.66,0,0,1,4.65,1.05L85,34.08a14,14,0,0,0-1.66-.65A5.81,5.81,0,0,0,81.51,33.16Z" transform="translate(-0.29 0.03)"/><path class="cls-2" d="M99.33,39.19a6.15,6.15,0,0,1-1.53,4.45,5.67,5.67,0,0,1-4.29,1.6,5.56,5.56,0,0,1-4.21-1.63,6.1,6.1,0,0,1-1.57-4.41,6.06,6.06,0,0,1,1.53-4.42,5.73,5.73,0,0,1,4.3-1.58,6.13,6.13,0,0,1,3,.72,5,5,0,0,1,2,2.08A6.74,6.74,0,0,1,99.33,39.19Zm-7.53,0a5.16,5.16,0,0,0,.4,2.28,1.39,1.39,0,0,0,1.34.78,1.35,1.35,0,0,0,1.32-.79,5.35,5.35,0,0,0,.38-2.28,5.07,5.07,0,0,0-.39-2.24,1.54,1.54,0,0,0-2.66,0A5,5,0,0,0,91.81,39.2Z" transform="translate(-0.29 0.03)"/><path class="cls-2" d="M109,45V38.67a3.64,3.64,0,0,0-.34-1.75,1.14,1.14,0,0,0-1.07-.59,1.55,1.55,0,0,0-1.47.81,6.14,6.14,0,0,0-.45,2.78V45h-4l0-11.62h3l.5,1.43h.24a3.18,3.18,0,0,1,1.42-1.23,5,5,0,0,1,2.09-.41,4,4,0,0,1,3,1.11A4.36,4.36,0,0,1,113,37.45V45Z" transform="translate(-0.29 0.03)"/><path class="cls-2" d="M124.66,41.42a3.3,3.3,0,0,1-1.27,2.82,6,6,0,0,1-3.65,1,15.76,15.76,0,0,1-2.25-.14,9.5,9.5,0,0,1-1.95-.51V41.35a12.08,12.08,0,0,0,2,.67,8.63,8.63,0,0,0,2,.26q1.3,0,1.3-.6a.67.67,0,0,0-.36-.55,16.77,16.77,0,0,0-2.12-.94,5.28,5.28,0,0,1-2.24-1.49,3.4,3.4,0,0,1-.64-2.12,2.93,2.93,0,0,1,1.25-2.52,6,6,0,0,1,3.54-.91,8.89,8.89,0,0,1,2.16.25,12.76,12.76,0,0,1,2.1.73l-1.08,2.59a12.15,12.15,0,0,0-1.69-.61,5.61,5.61,0,0,0-1.46-.25q-1,0-1,.48a.6.6,0,0,0,.34.51,18.53,18.53,0,0,0,2,.85,7.63,7.63,0,0,1,1.82,1,2.94,2.94,0,0,1,.88,1.13A4,4,0,0,1,124.66,41.42Z" transform="translate(-0.29 0.03)"/><path class="cls-2" d="M132.58,42a6,6,0,0,0,1.94-.4v2.92A8,8,0,0,1,133,45a8.77,8.77,0,0,1-1.72.15,3.76,3.76,0,0,1-2.91-1,4.44,4.44,0,0,1-.9-3V36.37H126V34.74l1.78-1.26,1-2.44h2.62v2.33h2.85v3h-2.85v4.52Q131.49,42,132.58,42Z" transform="translate(-0.29 0.03)"/><path class="cls-2" d="M143.55,33.14a5.8,5.8,0,0,1,1,.08l.23,0L144.42,37a5.9,5.9,0,0,0-1.36-.12,2.6,2.6,0,0,0-1.91.6,2.35,2.35,0,0,0-.59,1.73V45h-4l0-11.62h3l.63,1.86h.19a4,4,0,0,1,1.4-1.49A3.36,3.36,0,0,1,143.55,33.14Z" transform="translate(-0.29 0.03)"/><path class="cls-2" d="M154.68,44.95l-.5-1.45h-.24a3.26,3.26,0,0,1-1.4,1.23,4.88,4.88,0,0,1-2.11.43,3.94,3.94,0,0,1-3-1.11,4.36,4.36,0,0,1-1.07-3.14V33.34h4v6.35a3.64,3.64,0,0,0,.33,1.72,1.12,1.12,0,0,0,1.06.58,1.55,1.55,0,0,0,1.48-.82,6.22,6.22,0,0,0,.44-2.75V33.33h4l0,11.62Z" transform="translate(-0.29 0.03)"/><path class="cls-2" d="M165.77,45.14a5.71,5.71,0,0,1-4.32-1.53A6.14,6.14,0,0,1,160,39.19a6.06,6.06,0,0,1,1.58-4.48,6.12,6.12,0,0,1,4.52-1.6,8.47,8.47,0,0,1,3.8.88l-1.17,3a13,13,0,0,0-1.34-.51,4.34,4.34,0,0,0-1.28-.19,1.73,1.73,0,0,0-1.51.76,3.68,3.68,0,0,0-.53,2.14Q164,42,166.1,42a6.24,6.24,0,0,0,3.38-1v3.19A6.59,6.59,0,0,1,165.77,45.14Z" transform="translate(-0.29 0.03)"/><path class="cls-2" d="M177.48,42a6,6,0,0,0,1.94-.4v2.92a8,8,0,0,1-1.54.5,8.77,8.77,0,0,1-1.72.15,3.76,3.76,0,0,1-2.91-1,4.44,4.44,0,0,1-.9-3V36.31h-1.41V34.68l1.78-1.26,1-2.44h2.62V33.3h2.85v3h-2.85v4.52Q176.4,42,177.48,42Z" transform="translate(-0.29 0.03)"/><path class="cls-2" d="M181.35,30.4a1.69,1.69,0,0,1,.5-1.34,3.18,3.18,0,0,1,3.25,0,1.68,1.68,0,0,1,.52,1.33q0,1.76-2.14,1.77T181.35,30.4Zm4.13,14.5h-4l0-11.62h4Z" transform="translate(-0.29 0.03)"/><path class="cls-2" d="M199.37,39.06a6.15,6.15,0,0,1-1.53,4.45,5.67,5.67,0,0,1-4.29,1.6,5.56,5.56,0,0,1-4.21-1.63,6.11,6.11,0,0,1-1.57-4.41,6.06,6.06,0,0,1,1.53-4.42,5.73,5.73,0,0,1,4.3-1.58,6.13,6.13,0,0,1,3,.72,5,5,0,0,1,2,2.08A6.74,6.74,0,0,1,199.37,39.06Zm-7.53,0a5.17,5.17,0,0,0,.4,2.28,1.39,1.39,0,0,0,1.34.78,1.35,1.35,0,0,0,1.32-.79,5.35,5.35,0,0,0,.38-2.28,5.07,5.07,0,0,0-.39-2.24,1.54,1.54,0,0,0-2.66,0A5,5,0,0,0,191.84,39.07Z" transform="translate(-0.29 0.03)"/><path class="cls-2" d="M209,44.88V38.54a3.64,3.64,0,0,0-.34-1.75,1.14,1.14,0,0,0-1.07-.59,1.55,1.55,0,0,0-1.46.81,6.14,6.14,0,0,0-.45,2.78v5.09h-4l0-11.62h3l.5,1.43h.24a3.18,3.18,0,0,1,1.42-1.23,5,5,0,0,1,2.09-.41,4,4,0,0,1,3,1.11A4.36,4.36,0,0,1,213,37.31v7.56Z" transform="translate(-0.29 0.03)"/></svg>